<svg width="24" height="24" viewBox="0 0 24 24" fill="none" xmlns="http://www.w3.org/2000/svg">
<rect width="24" height="24" fill="#E6F1FA"/>
<path d="M7.97076 18.0001C7.77019 18.0001 7.57271 17.9214 7.42538 17.774C7.20707 17.5557 7.13996 17.2287 7.25412 16.9417L8.79693 13.0847C8.83628 12.9882 8.89413 12.8995 8.96819 12.8262L14.368 7.42641C14.6696 7.12479 15.1572 7.12479 15.4588 7.42641L17.773 9.74063C18.0746 10.0422 18.0746 10.5298 17.773 10.8314L14.6874 13.917C14.3858 14.2186 13.8982 14.2186 13.5966 13.917C13.295 13.6154 13.295 13.1279 13.5966 12.8262L16.1369 10.286L14.9134 9.06256L10.1716 13.8052L9.35543 15.844L11.395 15.0286L11.5084 14.9144L11.2824 14.6884C10.9808 14.3868 10.9808 13.8993 11.2824 13.5977C11.584 13.296 12.0715 13.296 12.3732 13.5977L13.1446 14.3691C13.4462 14.6707 13.4462 15.1582 13.1446 15.4598L12.3732 16.2312C12.2991 16.3053 12.2112 16.3631 12.114 16.4025L8.25695 17.9453C8.16438 17.9823 8.06718 18.0001 7.97076 18.0001Z" fill="black"/>
</svg>
